<mxfile host="Electron" modified="2023-06-02T18:41:49.643Z" agent="Mozilla/5.0 (Macintosh; Intel Mac OS X 10_15_7) AppleWebKit/537.36 (KHTML, like Gecko) draw.io/21.2.1 Chrome/112.0.5615.87 Electron/24.1.2 Safari/537.36" etag="0pBqAOz4kQU0AvL_lcuP" version="21.2.1" type="device">
  <diagram name="PÃ¡gina-1" id="_i81Xd9ckMjUkijjxAwh">
    <mxGraphModel dx="5470" dy="3653" grid="1" gridSize="10" guides="1" tooltips="1" connect="1" arrows="1" fold="1" page="1" pageScale="1" pageWidth="827" pageHeight="1169" math="0" shadow="0">
      <root>
        <mxCell id="0" />
        <mxCell id="1" parent="0" />
        <mxCell id="jmgHsOFiRTPEXdujloW--13" style="edgeStyle=orthogonalEdgeStyle;rounded=0;orthogonalLoop=1;jettySize=auto;html=1;" parent="1" source="TQERzV5RkQwyqlUsKJya-1" target="jmgHsOFiRTPEXdujloW--14" edge="1">
          <mxGeometry relative="1" as="geometry">
            <mxPoint x="789.9999999999998" y="-880" as="targetPoint" />
            <Array as="points">
              <mxPoint x="1500" y="-1080" />
            </Array>
          </mxGeometry>
        </mxCell>
        <mxCell id="TQERzV5RkQwyqlUsKJya-1" value="&lt;div style=&quot;padding: 0px 0px 0px 2px;&quot;&gt;&lt;div style=&quot;font-family: &amp;quot;Courier New&amp;quot;; font-size: 10pt;&quot;&gt;&lt;p style=&quot;&quot;&gt;&lt;span style=&quot;background-color: rgb(255, 255, 255); font-size: 10pt;&quot;&gt;1.Register as a doctor&lt;/span&gt;&lt;br&gt;&lt;/p&gt;&lt;div style=&quot;color: rgb(0, 0, 0); padding: 0px 0px 0px 2px;&quot;&gt;&lt;div style=&quot;font-size: 10pt;&quot;&gt;&lt;p style=&quot;&quot;&gt;&lt;span style=&quot;background-color: rgb(255, 255, 255);&quot;&gt;2.Register as a patient&lt;/span&gt;&lt;/p&gt;&lt;/div&gt;&lt;span style=&quot;background-color: rgb(255, 255, 255);&quot;&gt;&lt;br&gt;&lt;/span&gt;&lt;/div&gt;&lt;/div&gt;&lt;br&gt;&lt;/div&gt;" style="whiteSpace=wrap;html=1;aspect=fixed;" parent="1" vertex="1">
          <mxGeometry x="540" y="-1130" width="164" height="164" as="geometry" />
        </mxCell>
        <mxCell id="TQERzV5RkQwyqlUsKJya-3" style="edgeStyle=orthogonalEdgeStyle;rounded=0;orthogonalLoop=1;jettySize=auto;html=1;exitX=0.5;exitY=1;exitDx=0;exitDy=0;" parent="1" source="TQERzV5RkQwyqlUsKJya-1" target="TQERzV5RkQwyqlUsKJya-1" edge="1">
          <mxGeometry relative="1" as="geometry" />
        </mxCell>
        <mxCell id="TQERzV5RkQwyqlUsKJya-7" style="edgeStyle=orthogonalEdgeStyle;rounded=0;orthogonalLoop=1;jettySize=auto;html=1;exitX=0.5;exitY=1;exitDx=0;exitDy=0;" parent="1" source="TQERzV5RkQwyqlUsKJya-1" target="TQERzV5RkQwyqlUsKJya-1" edge="1">
          <mxGeometry relative="1" as="geometry" />
        </mxCell>
        <mxCell id="jmgHsOFiRTPEXdujloW--5" style="edgeStyle=orthogonalEdgeStyle;rounded=0;orthogonalLoop=1;jettySize=auto;html=1;entryX=0;entryY=0.5;entryDx=0;entryDy=0;" parent="1" source="jmgHsOFiRTPEXdujloW--1" target="TQERzV5RkQwyqlUsKJya-1" edge="1">
          <mxGeometry relative="1" as="geometry" />
        </mxCell>
        <mxCell id="jmgHsOFiRTPEXdujloW--6" style="edgeStyle=orthogonalEdgeStyle;rounded=0;orthogonalLoop=1;jettySize=auto;html=1;entryX=-0.013;entryY=0.602;entryDx=0;entryDy=0;entryPerimeter=0;" parent="1" source="jmgHsOFiRTPEXdujloW--1" target="jmgHsOFiRTPEXdujloW--4" edge="1">
          <mxGeometry relative="1" as="geometry">
            <mxPoint x="20" y="-760" as="targetPoint" />
            <Array as="points">
              <mxPoint x="20" y="-970" />
              <mxPoint x="20" y="-762" />
            </Array>
          </mxGeometry>
        </mxCell>
        <mxCell id="jmgHsOFiRTPEXdujloW--1" value="&lt;br&gt;&lt;br style=&quot;border-color: var(--border-color);&quot;&gt;&lt;p style=&quot;border-color: var(--border-color); font-family: &amp;quot;Courier New&amp;quot;; font-size: 13.3333px;&quot;&gt;&lt;font style=&quot;border-color: var(--border-color); background-color: rgb(255, 255, 255);&quot; color=&quot;#05001f&quot;&gt;Welcome to the Vaccination app!&lt;/font&gt;&lt;/p&gt;&lt;p style=&quot;border-color: var(--border-color); font-family: &amp;quot;Courier New&amp;quot;; font-size: 13.3333px;&quot;&gt;&lt;font style=&quot;border-color: var(--border-color); background-color: rgb(255, 255, 255);&quot; color=&quot;#05001f&quot;&gt;1.Register&lt;/font&gt;&lt;/p&gt;&lt;p style=&quot;border-color: var(--border-color); font-family: &amp;quot;Courier New&amp;quot;; font-size: 13.3333px;&quot;&gt;&lt;font style=&quot;border-color: var(--border-color); background-color: rgb(255, 255, 255);&quot; color=&quot;#05001f&quot;&gt;2.Log in.&lt;/font&gt;&lt;/p&gt;&lt;p style=&quot;border-color: var(--border-color); font-family: &amp;quot;Courier New&amp;quot;; font-size: 13.3333px;&quot;&gt;&lt;font style=&quot;border-color: var(--border-color); background-color: rgb(255, 255, 255);&quot; color=&quot;#05001f&quot;&gt;0. Exit&lt;/font&gt;&lt;/p&gt;" style="whiteSpace=wrap;html=1;aspect=fixed;" parent="1" vertex="1">
          <mxGeometry x="80" y="-1110" width="210" height="210" as="geometry" />
        </mxCell>
        <mxCell id="jmgHsOFiRTPEXdujloW--8" style="edgeStyle=orthogonalEdgeStyle;rounded=0;orthogonalLoop=1;jettySize=auto;html=1;entryX=0.443;entryY=-0.001;entryDx=0;entryDy=0;entryPerimeter=0;" parent="1" source="jmgHsOFiRTPEXdujloW--4" target="jmgHsOFiRTPEXdujloW--9" edge="1">
          <mxGeometry relative="1" as="geometry">
            <mxPoint x="360" y="-680.0000000000001" as="targetPoint" />
            <Array as="points">
              <mxPoint x="471" y="-775" />
            </Array>
          </mxGeometry>
        </mxCell>
        <mxCell id="jmgHsOFiRTPEXdujloW--19" style="edgeStyle=orthogonalEdgeStyle;rounded=0;orthogonalLoop=1;jettySize=auto;html=1;exitX=1;exitY=0.5;exitDx=0;exitDy=0;entryX=0.5;entryY=0;entryDx=0;entryDy=0;" parent="1" source="jmgHsOFiRTPEXdujloW--4" target="jmgHsOFiRTPEXdujloW--18" edge="1">
          <mxGeometry relative="1" as="geometry">
            <mxPoint x="660" y="-750" as="targetPoint" />
            <Array as="points">
              <mxPoint x="845" y="-775" />
            </Array>
          </mxGeometry>
        </mxCell>
        <mxCell id="jmgHsOFiRTPEXdujloW--20" style="edgeStyle=orthogonalEdgeStyle;rounded=0;orthogonalLoop=1;jettySize=auto;html=1;exitX=0.5;exitY=1;exitDx=0;exitDy=0;" parent="1" source="jmgHsOFiRTPEXdujloW--4" target="jmgHsOFiRTPEXdujloW--21" edge="1">
          <mxGeometry relative="1" as="geometry">
            <mxPoint x="145.33333333333348" y="-630" as="targetPoint" />
          </mxGeometry>
        </mxCell>
        <mxCell id="jmgHsOFiRTPEXdujloW--4" value="&lt;font face=&quot;Courier New&quot;&gt;Username:.......&lt;br&gt;Password:.......&lt;/font&gt;" style="whiteSpace=wrap;html=1;aspect=fixed;" parent="1" vertex="1">
          <mxGeometry x="80" y="-840" width="130" height="130" as="geometry" />
        </mxCell>
        <mxCell id="jmgHsOFiRTPEXdujloW--7" style="edgeStyle=orthogonalEdgeStyle;rounded=0;orthogonalLoop=1;jettySize=auto;html=1;" parent="1" source="jmgHsOFiRTPEXdujloW--1" target="jmgHsOFiRTPEXdujloW--1" edge="1">
          <mxGeometry relative="1" as="geometry">
            <Array as="points">
              <mxPoint x="185" y="-1130" />
              <mxPoint x="310" y="-1130" />
              <mxPoint x="310" y="-880" />
              <mxPoint x="185" y="-880" />
            </Array>
          </mxGeometry>
        </mxCell>
        <mxCell id="jmgHsOFiRTPEXdujloW--22" style="edgeStyle=orthogonalEdgeStyle;rounded=0;orthogonalLoop=1;jettySize=auto;html=1;entryX=0;entryY=0.5;entryDx=0;entryDy=0;" parent="1" source="jmgHsOFiRTPEXdujloW--9" target="jmgHsOFiRTPEXdujloW--23" edge="1">
          <mxGeometry relative="1" as="geometry">
            <mxPoint x="700" y="-370" as="targetPoint" />
            <Array as="points">
              <mxPoint x="700" y="-590" />
              <mxPoint x="700" y="-370" />
            </Array>
          </mxGeometry>
        </mxCell>
        <mxCell id="jmgHsOFiRTPEXdujloW--24" style="edgeStyle=orthogonalEdgeStyle;rounded=0;orthogonalLoop=1;jettySize=auto;html=1;exitX=1;exitY=0.75;exitDx=0;exitDy=0;" parent="1" source="jmgHsOFiRTPEXdujloW--9" edge="1">
          <mxGeometry relative="1" as="geometry">
            <mxPoint x="660" y="-300" as="targetPoint" />
            <Array as="points">
              <mxPoint x="560" y="-580" />
              <mxPoint x="661" y="-580" />
              <mxPoint x="661" y="-300" />
            </Array>
          </mxGeometry>
        </mxCell>
        <mxCell id="jmgHsOFiRTPEXdujloW--26" style="edgeStyle=orthogonalEdgeStyle;rounded=0;orthogonalLoop=1;jettySize=auto;html=1;exitX=0.5;exitY=1;exitDx=0;exitDy=0;" parent="1" source="jmgHsOFiRTPEXdujloW--9" target="jmgHsOFiRTPEXdujloW--27" edge="1">
          <mxGeometry relative="1" as="geometry">
            <mxPoint x="480.23076923076906" y="-320" as="targetPoint" />
            <Array as="points">
              <mxPoint x="400" y="-520" />
              <mxPoint x="400" y="-560" />
              <mxPoint x="370" y="-560" />
            </Array>
          </mxGeometry>
        </mxCell>
        <mxCell id="jmgHsOFiRTPEXdujloW--9" value="&lt;font face=&quot;Courier New&quot;&gt;&lt;font color=&quot;#3399ff&quot;&gt;DIRECTOR MENU&lt;/font&gt;&lt;br&gt;What do you want to do?&lt;br&gt;1.Insert data&lt;br&gt;2.Remove data&lt;br&gt;3.Assign data&lt;br&gt;&lt;/font&gt;" style="whiteSpace=wrap;html=1;aspect=fixed;" parent="1" vertex="1">
          <mxGeometry x="400" y="-680" width="160" height="160" as="geometry" />
        </mxCell>
        <mxCell id="jmgHsOFiRTPEXdujloW--49" style="edgeStyle=orthogonalEdgeStyle;rounded=0;orthogonalLoop=1;jettySize=auto;html=1;entryX=0.536;entryY=-0.276;entryDx=0;entryDy=0;entryPerimeter=0;" parent="1" source="jmgHsOFiRTPEXdujloW--14" target="jmgHsOFiRTPEXdujloW--16" edge="1">
          <mxGeometry relative="1" as="geometry">
            <Array as="points">
              <mxPoint x="1510" y="-814" />
            </Array>
          </mxGeometry>
        </mxCell>
        <mxCell id="jmgHsOFiRTPEXdujloW--14" value="&lt;font face=&quot;Courier New&quot;&gt;Please input data&lt;br&gt;&lt;br&gt;Id document:.........&lt;br&gt;Name:.......&lt;br&gt;Surname:.......&lt;br&gt;Email:.......&lt;br&gt;Password:.....&lt;/font&gt;" style="whiteSpace=wrap;html=1;aspect=fixed;" parent="1" vertex="1">
          <mxGeometry x="1420" y="-1020" width="160" height="160" as="geometry" />
        </mxCell>
        <mxCell id="jmgHsOFiRTPEXdujloW--16" value="You have registered in the app" style="text;html=1;strokeColor=none;fillColor=none;align=center;verticalAlign=middle;whiteSpace=wrap;rounded=0;" parent="1" vertex="1">
          <mxGeometry x="1400" y="-780" width="190" height="50" as="geometry" />
        </mxCell>
        <mxCell id="jmgHsOFiRTPEXdujloW--50" style="edgeStyle=orthogonalEdgeStyle;rounded=0;orthogonalLoop=1;jettySize=auto;html=1;" parent="1" source="jmgHsOFiRTPEXdujloW--18" target="jmgHsOFiRTPEXdujloW--51" edge="1">
          <mxGeometry relative="1" as="geometry">
            <mxPoint x="1150" y="-655" as="targetPoint" />
          </mxGeometry>
        </mxCell>
        <mxCell id="jmgHsOFiRTPEXdujloW--52" style="edgeStyle=orthogonalEdgeStyle;rounded=0;orthogonalLoop=1;jettySize=auto;html=1;exitX=1;exitY=0.75;exitDx=0;exitDy=0;" parent="1" source="jmgHsOFiRTPEXdujloW--18" target="jmgHsOFiRTPEXdujloW--53" edge="1">
          <mxGeometry relative="1" as="geometry">
            <mxPoint x="1130" y="-530" as="targetPoint" />
          </mxGeometry>
        </mxCell>
        <mxCell id="jmgHsOFiRTPEXdujloW--54" style="edgeStyle=orthogonalEdgeStyle;rounded=0;orthogonalLoop=1;jettySize=auto;html=1;" parent="1" source="jmgHsOFiRTPEXdujloW--18" target="jmgHsOFiRTPEXdujloW--55" edge="1">
          <mxGeometry relative="1" as="geometry">
            <mxPoint x="1250" y="-470" as="targetPoint" />
            <Array as="points">
              <mxPoint x="1000" y="-580" />
              <mxPoint x="1000" y="-470" />
              <mxPoint x="1060" y="-470" />
            </Array>
          </mxGeometry>
        </mxCell>
        <mxCell id="jmgHsOFiRTPEXdujloW--18" value="&lt;font style=&quot;font-size: 12px;&quot; face=&quot;Courier New&quot;&gt;&lt;font color=&quot;#3399ff&quot;&gt;DOCTOR MENU&lt;br&gt;&lt;/font&gt;&lt;span style=&quot;background-color: initial;&quot;&gt;&lt;span style=&quot;&quot;&gt;Welcome doctor.Choose an &lt;/span&gt;&lt;font style=&quot;font-size: 12px;&quot;&gt;option&lt;/font&gt;&lt;/span&gt;&lt;font style=&quot;font-size: 12px;&quot; color=&quot;#3399ff&quot;&gt;&lt;br&gt;&lt;/font&gt;&lt;/font&gt;&lt;div style=&quot;padding: 0px 0px 0px 2px;&quot;&gt;&lt;div style=&quot;&quot;&gt;&lt;p style=&quot;&quot;&gt;&lt;font style=&quot;font-size: 12px;&quot; face=&quot;Courier New&quot;&gt;1.Check vaccine supplies&lt;/font&gt;&lt;/p&gt;&lt;p style=&quot;&quot;&gt;&lt;font style=&quot;font-size: 12px;&quot; face=&quot;Courier New&quot;&gt;2.Check vaccines of a patient&lt;/font&gt;&lt;/p&gt;&lt;p style=&quot;&quot;&gt;&lt;font style=&quot;font-size: 12px;&quot; face=&quot;Courier New&quot;&gt;3.Check all my patients&lt;/font&gt;&lt;/p&gt;&lt;p style=&quot;&quot;&gt;&lt;font style=&quot;font-size: 12px;&quot; face=&quot;Courier New&quot;&gt;4.Check my appointments&lt;/font&gt;&lt;/p&gt;&lt;p style=&quot;&quot;&gt;&lt;font style=&quot;font-size: 12px;&quot; face=&quot;Courier New&quot;&gt;5.Export my patients to XML&amp;nbsp;&lt;/font&gt;&lt;/p&gt;&lt;p style=&quot;&quot;&gt;&lt;font style=&quot;font-size: 12px;&quot; face=&quot;Courier New&quot;&gt;6. Import from XML&lt;/font&gt;&lt;/p&gt;&lt;p style=&quot;&quot;&gt;&lt;font style=&quot;font-size: 12px;&quot; face=&quot;Courier New&quot;&gt;7. From XML to HTML&lt;/font&gt;&lt;/p&gt;&lt;/div&gt;&lt;/div&gt;" style="whiteSpace=wrap;html=1;aspect=fixed;" parent="1" vertex="1">
          <mxGeometry x="730" y="-750" width="230" height="230" as="geometry" />
        </mxCell>
        <mxCell id="jmgHsOFiRTPEXdujloW--28" style="edgeStyle=orthogonalEdgeStyle;rounded=0;orthogonalLoop=1;jettySize=auto;html=1;exitX=1.001;exitY=0.549;exitDx=0;exitDy=0;exitPerimeter=0;" parent="1" source="jmgHsOFiRTPEXdujloW--21" target="jmgHsOFiRTPEXdujloW--29" edge="1">
          <mxGeometry relative="1" as="geometry">
            <mxPoint x="30" y="-434" as="targetPoint" />
            <Array as="points">
              <mxPoint x="-60" y="-419" />
              <mxPoint x="-60" y="-419" />
            </Array>
          </mxGeometry>
        </mxCell>
        <mxCell id="jmgHsOFiRTPEXdujloW--30" style="edgeStyle=orthogonalEdgeStyle;rounded=0;orthogonalLoop=1;jettySize=auto;html=1;" parent="1" source="jmgHsOFiRTPEXdujloW--21" target="jmgHsOFiRTPEXdujloW--31" edge="1">
          <mxGeometry relative="1" as="geometry">
            <mxPoint y="-540" as="targetPoint" />
            <Array as="points">
              <mxPoint x="-35" y="-450" />
              <mxPoint x="-35" y="-540" />
            </Array>
          </mxGeometry>
        </mxCell>
        <mxCell id="jmgHsOFiRTPEXdujloW--32" style="edgeStyle=orthogonalEdgeStyle;rounded=0;orthogonalLoop=1;jettySize=auto;html=1;" parent="1" source="jmgHsOFiRTPEXdujloW--21" target="jmgHsOFiRTPEXdujloW--33" edge="1">
          <mxGeometry relative="1" as="geometry">
            <mxPoint x="20" y="-320" as="targetPoint" />
            <Array as="points">
              <mxPoint x="-25" y="-400" />
              <mxPoint x="-25" y="-320" />
            </Array>
          </mxGeometry>
        </mxCell>
        <mxCell id="jmgHsOFiRTPEXdujloW--34" style="edgeStyle=orthogonalEdgeStyle;rounded=0;orthogonalLoop=1;jettySize=auto;html=1;" parent="1" source="jmgHsOFiRTPEXdujloW--21" target="jmgHsOFiRTPEXdujloW--35" edge="1">
          <mxGeometry relative="1" as="geometry">
            <mxPoint x="-509.9999999999998" y="-270" as="targetPoint" />
            <Array as="points">
              <mxPoint x="-509" y="-370" />
              <mxPoint x="-509" y="-270" />
            </Array>
          </mxGeometry>
        </mxCell>
        <mxCell id="jmgHsOFiRTPEXdujloW--36" style="edgeStyle=orthogonalEdgeStyle;rounded=0;orthogonalLoop=1;jettySize=auto;html=1;" parent="1" source="jmgHsOFiRTPEXdujloW--21" target="jmgHsOFiRTPEXdujloW--37" edge="1">
          <mxGeometry relative="1" as="geometry">
            <mxPoint x="-20.000000000000227" y="-240" as="targetPoint" />
            <Array as="points">
              <mxPoint x="-40" y="-340" />
              <mxPoint x="-40" y="-240" />
            </Array>
          </mxGeometry>
        </mxCell>
        <mxCell id="jmgHsOFiRTPEXdujloW--40" style="edgeStyle=orthogonalEdgeStyle;rounded=0;orthogonalLoop=1;jettySize=auto;html=1;" parent="1" source="jmgHsOFiRTPEXdujloW--21" target="jmgHsOFiRTPEXdujloW--42" edge="1">
          <mxGeometry relative="1" as="geometry">
            <mxPoint x="-480" y="-433" as="targetPoint" />
            <Array as="points">
              <mxPoint x="-420" y="-320" />
              <mxPoint x="-420" y="-510" />
            </Array>
          </mxGeometry>
        </mxCell>
        <mxCell id="jmgHsOFiRTPEXdujloW--21" value="&lt;div style=&quot;padding: 0px 0px 0px 2px;&quot;&gt;&lt;font face=&quot;Courier New&quot;&gt;&lt;br&gt;&lt;/font&gt;&lt;div style=&quot;&quot;&gt;&lt;font face=&quot;Courier New&quot;&gt;&lt;font color=&quot;#3399ff&quot;&gt;PATIENT MENU&lt;/font&gt;&lt;br&gt;&lt;/font&gt;&lt;p style=&quot;&quot;&gt;&lt;font style=&quot;font-size: 12px;&quot; face=&quot;Courier New&quot;&gt;Welcome patient!&lt;/font&gt;&lt;/p&gt;&lt;div style=&quot;padding: 0px 0px 0px 2px;&quot;&gt;&lt;div style=&quot;&quot;&gt;&lt;p style=&quot;&quot;&gt;&lt;font style=&quot;font-size: 12px;&quot; face=&quot;Courier New&quot;&gt;What do you want to do? Choose an option:&lt;/font&gt;&lt;/p&gt;&lt;div style=&quot;padding: 0px 0px 0px 2px;&quot;&gt;&lt;div style=&quot;&quot;&gt;&lt;p style=&quot;&quot;&gt;&lt;font style=&quot;font-size: 12px;&quot; face=&quot;Courier New&quot;&gt;1. Check vaccines I have already put on&lt;/font&gt;&lt;/p&gt;&lt;div style=&quot;padding: 0px 0px 0px 2px;&quot;&gt;&lt;div style=&quot;&quot;&gt;&lt;p style=&quot;&quot;&gt;&lt;font style=&quot;font-size: 12px;&quot; face=&quot;Courier New&quot;&gt;2. Check vaccines I still have to put&lt;/font&gt;&lt;/p&gt;&lt;div style=&quot;padding: 0px 0px 0px 2px;&quot;&gt;&lt;div style=&quot;&quot;&gt;&lt;p style=&quot;&quot;&gt;&lt;font style=&quot;font-size: 12px;&quot; face=&quot;Courier New&quot;&gt;3. Check my appointments&lt;/font&gt;&lt;/p&gt;&lt;p style=&quot;&quot;&gt;&lt;font face=&quot;Courier New&quot;&gt;4.Set an appointment&lt;/font&gt;&lt;/p&gt;&lt;p style=&quot;&quot;&gt;&lt;font face=&quot;Courier New&quot;&gt;5.Cancel an appointment&lt;/font&gt;&lt;/p&gt;&lt;p style=&quot;&quot;&gt;&lt;font face=&quot;Courier New&quot;&gt;6. Update my conditions&lt;/font&gt;&lt;/p&gt;&lt;/div&gt;&lt;/div&gt;&lt;/div&gt;&lt;/div&gt;&lt;/div&gt;&lt;/div&gt;&lt;/div&gt;&lt;/div&gt;&lt;/div&gt;&lt;/div&gt;" style="whiteSpace=wrap;html=1;aspect=fixed;" parent="1" vertex="1">
          <mxGeometry x="-370" y="-584" width="300" height="300" as="geometry" />
        </mxCell>
        <mxCell id="jmgHsOFiRTPEXdujloW--23" value="&lt;font face=&quot;Courier New&quot;&gt;1.Insert condition&amp;nbsp;&lt;br&gt;2. Insert vaccine&lt;br&gt;3. Insert disease&lt;/font&gt;" style="whiteSpace=wrap;html=1;aspect=fixed;" parent="1" vertex="1">
          <mxGeometry x="827" y="-450" width="160" height="160" as="geometry" />
        </mxCell>
        <mxCell id="jmgHsOFiRTPEXdujloW--25" value="&lt;font face=&quot;Courier New&quot;&gt;1. Remove doctor&lt;br&gt;2. Remove vaccine&lt;br&gt;3. Remove patient&lt;/font&gt;" style="whiteSpace=wrap;html=1;aspect=fixed;" parent="1" vertex="1">
          <mxGeometry x="590" y="-300" width="140" height="140" as="geometry" />
        </mxCell>
        <mxCell id="jmgHsOFiRTPEXdujloW--27" value="&lt;div style=&quot;padding: 0px 0px 0px 2px;&quot;&gt;&lt;div style=&quot;font-family: &amp;quot;Courier New&amp;quot;; font-size: 10pt;&quot;&gt;&lt;p style=&quot;&quot;&gt;1.Assign condition to vaccine&lt;/p&gt;&lt;div style=&quot;padding: 0px 0px 0px 2px;&quot;&gt;&lt;div style=&quot;font-size: 10pt;&quot;&gt;&lt;p style=&quot;&quot;&gt;2.Assign disease to vaccine&lt;/p&gt;&lt;/div&gt;&lt;/div&gt;&lt;/div&gt;&lt;/div&gt;" style="whiteSpace=wrap;html=1;aspect=fixed;" parent="1" vertex="1">
          <mxGeometry x="290" y="-350" width="159.77" height="159.77" as="geometry" />
        </mxCell>
        <mxCell id="jmgHsOFiRTPEXdujloW--29" value="&lt;div style=&quot;padding: 0px 0px 0px 2px;&quot;&gt;&lt;br&gt;&lt;div style=&quot;font-family: &amp;quot;Courier New&amp;quot;;&quot;&gt;&lt;br&gt;&lt;p style=&quot;&quot;&gt;&lt;font style=&quot;font-size: 12px;&quot;&gt;The vaccines you have to put on are:&lt;/font&gt;&lt;/p&gt;&lt;p style=&quot;&quot;&gt;&lt;font color=&quot;#5465ff&quot; style=&quot;font-size: 12px;&quot;&gt;(list of vaccines)&lt;/font&gt;&lt;/p&gt;&lt;/div&gt;&lt;br&gt;&lt;/div&gt;" style="rounded=1;whiteSpace=wrap;html=1;" parent="1" vertex="1">
          <mxGeometry y="-476" width="170" height="84" as="geometry" />
        </mxCell>
        <mxCell id="jmgHsOFiRTPEXdujloW--31" value="&lt;p style=&quot;border-color: var(--border-color); font-family: &amp;quot;Courier New&amp;quot;;&quot;&gt;&lt;font style=&quot;border-color: var(--border-color);&quot;&gt;The vaccines you have to &lt;span style=&quot;white-space: pre;&quot;&gt; &lt;/span&gt;put on are:&amp;nbsp; &amp;nbsp; &amp;nbsp; &amp;nbsp; &amp;nbsp;&lt;/font&gt;&lt;span style=&quot;color: rgb(84, 101, 255); background-color: initial;&quot;&gt;(list of vaccines)&lt;/span&gt;&lt;/p&gt;" style="rounded=1;whiteSpace=wrap;html=1;" parent="1" vertex="1">
          <mxGeometry y="-580" width="180" height="80" as="geometry" />
        </mxCell>
        <mxCell id="jmgHsOFiRTPEXdujloW--33" value="&lt;div style=&quot;padding: 0px 0px 0px 2px;&quot;&gt;&lt;br&gt;&lt;div style=&quot;font-family: &amp;quot;Courier New&amp;quot;;&quot;&gt;&lt;br&gt;&lt;p style=&quot;&quot;&gt;&lt;font style=&quot;font-size: 12px;&quot;&gt;Your appointments are:&lt;/font&gt;&lt;/p&gt;&lt;p style=&quot;&quot;&gt;&lt;font style=&quot;font-size: 12px;&quot;&gt;&lt;font color=&quot;#5465ff&quot;&gt;(list of appointments)&lt;/font&gt;&lt;br&gt;&lt;/font&gt;&lt;/p&gt;&lt;div&gt;&lt;font style=&quot;font-size: 12px;&quot;&gt;&lt;span style=&quot;color: rgb(84, 101, 255);&quot;&gt;&lt;br&gt;&lt;/span&gt;&lt;/font&gt;&lt;/div&gt;&lt;/div&gt;&lt;br&gt;&lt;/div&gt;" style="rounded=1;whiteSpace=wrap;html=1;" parent="1" vertex="1">
          <mxGeometry x="60" y="-360" width="170" height="70" as="geometry" />
        </mxCell>
        <mxCell id="jmgHsOFiRTPEXdujloW--35" value="&lt;div style=&quot;padding: 0px 0px 0px 2px;&quot;&gt;&lt;div style=&quot;font-family: &amp;quot;Courier New&amp;quot;;&quot;&gt;&lt;br&gt;&lt;p style=&quot;&quot;&gt;Please, tell me the disease you want to put a vaccine of&lt;/p&gt;&lt;p style=&quot;&quot;&gt;.............&lt;/p&gt;&lt;p style=&quot;&quot;&gt;&lt;span style=&quot;background-color: initial;&quot;&gt;Please, tell me the date at which you want to set the appointment. (yyyy-MM-dd)&lt;/span&gt;&lt;/p&gt;&lt;div style=&quot;padding: 0px 0px 0px 2px;&quot;&gt;...............&lt;/div&gt;&lt;/div&gt;&lt;br&gt;&lt;/div&gt;" style="rounded=1;whiteSpace=wrap;html=1;" parent="1" vertex="1">
          <mxGeometry x="-690" y="-290" width="300" height="140" as="geometry" />
        </mxCell>
        <mxCell id="jmgHsOFiRTPEXdujloW--38" style="edgeStyle=orthogonalEdgeStyle;rounded=0;orthogonalLoop=1;jettySize=auto;html=1;" parent="1" source="jmgHsOFiRTPEXdujloW--37" target="jmgHsOFiRTPEXdujloW--39" edge="1">
          <mxGeometry relative="1" as="geometry">
            <mxPoint x="39.99999999999977" y="-50" as="targetPoint" />
          </mxGeometry>
        </mxCell>
        <mxCell id="jmgHsOFiRTPEXdujloW--37" value="&lt;div style=&quot;padding: 0px 0px 0px 2px;&quot;&gt;&lt;div style=&quot;font-family: &amp;quot;Courier New&amp;quot;;&quot;&gt;&lt;p style=&quot;&quot;&gt;&lt;font style=&quot;font-size: 12px;&quot;&gt;These are the list of your appointments:&lt;/font&gt;&lt;/p&gt;&lt;p style=&quot;&quot;&gt;&lt;font style=&quot;font-size: 12px;&quot;&gt;&lt;font color=&quot;#5465ff&quot;&gt;(list of appointments)&lt;/font&gt;&lt;/font&gt;&lt;/p&gt;&lt;div style=&quot;padding: 0px 0px 0px 2px;&quot;&gt;&lt;div style=&quot;font-size: 10pt;&quot;&gt;&lt;p style=&quot;&quot;&gt;Please, tell me the id of the appointment you want to remove:&lt;span style=&quot;background-color: initial; font-family: Helvetica; font-size: 12px;&quot;&gt;............................&lt;/span&gt;&lt;/p&gt;&lt;/div&gt;&lt;/div&gt;&lt;/div&gt;&lt;/div&gt;&lt;div style=&quot;padding: 0px 0px 0px 2px;&quot;&gt;&lt;br&gt;&lt;/div&gt;" style="rounded=1;whiteSpace=wrap;html=1;" parent="1" vertex="1">
          <mxGeometry x="-100" y="-230" width="280" height="150" as="geometry" />
        </mxCell>
        <mxCell id="jmgHsOFiRTPEXdujloW--39" value="&lt;font face=&quot;Courier New&quot;&gt;Appointment canceled&lt;/font&gt;" style="text;html=1;strokeColor=none;fillColor=none;align=center;verticalAlign=middle;whiteSpace=wrap;rounded=0;" parent="1" vertex="1">
          <mxGeometry x="-45" y="-40" width="170" height="30" as="geometry" />
        </mxCell>
        <mxCell id="jmgHsOFiRTPEXdujloW--43" style="edgeStyle=orthogonalEdgeStyle;rounded=0;orthogonalLoop=1;jettySize=auto;html=1;" parent="1" source="jmgHsOFiRTPEXdujloW--42" target="jmgHsOFiRTPEXdujloW--44" edge="1">
          <mxGeometry relative="1" as="geometry">
            <mxPoint x="-900" y="-520" as="targetPoint" />
            <Array as="points">
              <mxPoint x="-780" y="-520" />
              <mxPoint x="-780" y="-520" />
            </Array>
          </mxGeometry>
        </mxCell>
        <mxCell id="jmgHsOFiRTPEXdujloW--45" style="edgeStyle=orthogonalEdgeStyle;rounded=0;orthogonalLoop=1;jettySize=auto;html=1;" parent="1" source="jmgHsOFiRTPEXdujloW--42" target="jmgHsOFiRTPEXdujloW--46" edge="1">
          <mxGeometry relative="1" as="geometry">
            <mxPoint x="-830" y="-390" as="targetPoint" />
          </mxGeometry>
        </mxCell>
        <mxCell id="jmgHsOFiRTPEXdujloW--42" value="&lt;div style=&quot;padding: 0px 0px 0px 2px;&quot;&gt;&lt;div style=&quot;font-family: &amp;quot;Courier New&amp;quot;;&quot;&gt;&lt;p style=&quot;&quot;&gt;&lt;font style=&quot;font-size: 12px;&quot;&gt;1. Add new conditions&lt;/font&gt;&lt;/p&gt;&lt;div style=&quot;padding: 0px 0px 0px 2px;&quot;&gt;&lt;div style=&quot;&quot;&gt;&lt;p style=&quot;&quot;&gt;&lt;font style=&quot;font-size: 12px;&quot;&gt;2. Delete existing conditions&lt;/font&gt;&lt;/p&gt;&lt;/div&gt;&lt;/div&gt;&lt;/div&gt;&lt;/div&gt;" style="whiteSpace=wrap;html=1;aspect=fixed;" parent="1" vertex="1">
          <mxGeometry x="-730" y="-580" width="160" height="160" as="geometry" />
        </mxCell>
        <mxCell id="jmgHsOFiRTPEXdujloW--44" value="&lt;div style=&quot;padding: 0px 0px 0px 2px;&quot;&gt;&lt;br&gt;&lt;div style=&quot;font-family: &amp;quot;Courier New&amp;quot;;&quot;&gt;&lt;br&gt;&lt;p style=&quot;&quot;&gt;&lt;font style=&quot;font-size: 12px;&quot;&gt;How many new conditions do you have? Introduce a number:.....&lt;/font&gt;&lt;/p&gt;&lt;div style=&quot;padding: 0px 0px 0px 2px;&quot;&gt;&lt;div style=&quot;&quot;&gt;&lt;p style=&quot;&quot;&gt;&lt;font style=&quot;font-size: 12px;&quot;&gt;Introduce condition name:&lt;/font&gt;&lt;/p&gt;&lt;/div&gt;&lt;/div&gt;&lt;p style=&quot;font-size: 10pt;&quot;&gt;.........&lt;/p&gt;&lt;/div&gt;&lt;br&gt;&lt;/div&gt;" style="rounded=1;whiteSpace=wrap;html=1;" parent="1" vertex="1">
          <mxGeometry x="-1090" y="-584" width="240" height="130" as="geometry" />
        </mxCell>
        <mxCell id="jmgHsOFiRTPEXdujloW--47" style="edgeStyle=orthogonalEdgeStyle;rounded=0;orthogonalLoop=1;jettySize=auto;html=1;" parent="1" source="jmgHsOFiRTPEXdujloW--46" target="jmgHsOFiRTPEXdujloW--48" edge="1">
          <mxGeometry relative="1" as="geometry">
            <mxPoint x="-850" y="-290" as="targetPoint" />
          </mxGeometry>
        </mxCell>
        <mxCell id="jmgHsOFiRTPEXdujloW--46" value="&lt;div style=&quot;padding: 0px 0px 0px 2px;&quot;&gt;&lt;br&gt;&lt;div style=&quot;font-family: &amp;quot;Courier New&amp;quot;;&quot;&gt;&lt;br&gt;&lt;p style=&quot;&quot;&gt;&lt;font style=&quot;font-size: 12px;&quot;&gt;Which condition do you want to remove, type it&#39;s name:.....&lt;/font&gt;&lt;/p&gt;&lt;/div&gt;&lt;br&gt;&lt;/div&gt;" style="rounded=1;whiteSpace=wrap;html=1;" parent="1" vertex="1">
          <mxGeometry x="-930" y="-420" width="160" height="80" as="geometry" />
        </mxCell>
        <mxCell id="jmgHsOFiRTPEXdujloW--48" value="&lt;font face=&quot;Courier New&quot;&gt;Condition deleted&lt;/font&gt;" style="text;html=1;strokeColor=none;fillColor=none;align=center;verticalAlign=middle;whiteSpace=wrap;rounded=0;" parent="1" vertex="1">
          <mxGeometry x="-910" y="-290" width="120" height="30" as="geometry" />
        </mxCell>
        <mxCell id="jmgHsOFiRTPEXdujloW--51" value="&lt;div style=&quot;padding: 0px 0px 0px 2px;&quot;&gt;&lt;div style=&quot;font-family: &amp;quot;Courier New&amp;quot;;&quot;&gt;&lt;p style=&quot;&quot;&gt;&lt;font style=&quot;font-size: 12px;&quot;&gt;Introduce the name of the patient you want to check:&lt;/font&gt;&lt;/p&gt;&lt;p style=&quot;&quot;&gt;&lt;font style=&quot;font-size: 12px;&quot;&gt;..............&lt;/font&gt;&lt;/p&gt;&lt;p style=&quot;&quot;&gt;&lt;font color=&quot;#5465ff&quot; style=&quot;font-size: 12px;&quot;&gt;(list of patients)&lt;/font&gt;&lt;/p&gt;&lt;p style=&quot;&quot;&gt;&lt;font style=&quot;font-size: 12px;&quot;&gt;&lt;/font&gt;&lt;/p&gt;&lt;div style=&quot;padding: 0px 0px 0px 2px;&quot;&gt;&lt;div style=&quot;&quot;&gt;&lt;p style=&quot;&quot;&gt;&lt;font style=&quot;font-size: 12px;&quot;&gt;Tell me which one it is, type it&#39;s Id...&lt;/font&gt;&lt;/p&gt;&lt;/div&gt;&lt;/div&gt;&lt;/div&gt;&lt;/div&gt;" style="rounded=1;whiteSpace=wrap;html=1;" parent="1" vertex="1">
          <mxGeometry x="1170" y="-712.5" width="380" height="115" as="geometry" />
        </mxCell>
        <mxCell id="jmgHsOFiRTPEXdujloW--53" value="&lt;font face=&quot;Courier New&quot; color=&quot;#5465ff&quot;&gt;list of patients&lt;/font&gt;" style="rounded=1;whiteSpace=wrap;html=1;" parent="1" vertex="1">
          <mxGeometry x="1070" y="-560" width="120" height="60" as="geometry" />
        </mxCell>
        <mxCell id="jmgHsOFiRTPEXdujloW--55" value="&lt;font face=&quot;Courier New&quot; color=&quot;#5465ff&quot;&gt;list of appointments&lt;/font&gt;" style="rounded=1;whiteSpace=wrap;html=1;" parent="1" vertex="1">
          <mxGeometry x="1190" y="-500" width="120" height="60" as="geometry" />
        </mxCell>
      </root>
    </mxGraphModel>
  </diagram>
</mxfile>
